<svg width="129" height="128" fill="none" xmlns="http://www.w3.org/2000/svg"><g clip-path="url('#clip0_52_1092')" fill="#C00D0D"><path d="m124.436 108.114.508 13.974-35.166-35.165-22.92-22.925L124.95 5.905l-.512 13.981 3.333.118.728-20-20.004.728.118 3.332 13.974-.508-58.09 58.087L6.405 3.548l13.981.512.121-3.333L.503 0l.729 20.004 3.332-.118-.508-13.974 58.087 58.086L39.22 86.923 4.05 122.095l.512-13.984-3.333-.118L.5 127.994l20.004-.726-.118-3.332-13.974.508 35.165-35.166 22.924-22.92 22.922 22.92 35.172 35.173-13.984-.512-.118 3.333 20.001.728-.726-20.004-3.332.118Z"/><path d="M1.532 26.93v73.211L38.14 63.536 1.532 26.93ZM127.567 100.141V26.929L90.96 63.537l36.607 36.604ZM27.944 126.552h73.211L64.551 89.945l-36.607 36.607ZM101.155.52H27.944L64.55 37.126 101.155.521Z"/></g><defs><clipPath id="clip0_52_1092"><path fill="#fff" transform="translate(.5)" d="M0 0h128v128H0z"/></clipPath></defs></svg>