<svg width="129" height="128" fill="none" xmlns="http://www.w3.org/2000/svg"><g clip-path="url('#clip0_15_1275')"><path d="M17.842 0v17.266H0V128h110.734v-17.266h17.842V0H17.842Zm-5.35 60.771c4.93.65 9.652 5.433 9.784 9.83-4.325-.02-9.672-5.352-9.784-9.83Zm9.842 40.935c-4.544-.21-9.31-4.932-9.894-9.72 3.874-.475 9.272 4.78 9.894 9.72Zm13.744 4.029c-.104 4.395-5.433 9.715-9.767 9.756.086-4.372 5.444-9.721 9.767-9.75v-.006ZM26.314 84.42c.052-4.342 5.404-9.698 9.76-9.764-.065 4.36-5.392 9.69-9.76 9.764Zm-.044-31.03c.369-4.668 5.146-9.45 9.765-9.85-.046 3.974-4.403 9.266-9.764 9.85ZM12.495 29.773c4.316 0 9.649 5.326 9.784 9.83-4.952-.67-9.68-5.46-9.784-9.83Zm40.863 71.91c-4.354-.057-9.698-5.398-9.764-9.758 4.322.046 9.664 5.384 9.75 9.758h.014Zm.052-31.13c-3.798.028-9.209-4.213-9.88-9.733 4.562.245 9.316 4.967 9.866 9.732h.014Zm4.003 13.873c0-4.317 5.35-9.666 9.827-9.784-.676 4.952-5.45 9.675-9.841 9.784h.014Zm9.727 21.28c-.136 4.282-4.723 9.347-9.785 9.831.444-4.746 5.232-9.52 9.77-9.831h.015Zm-9.785-52.328c.46-4.748 5.25-9.519 9.785-9.83-.15 4.282-4.737 9.347-9.802 9.83h.017ZM43.597 29.767c4.34.049 9.68 5.387 9.764 9.761-4.374-.063-9.715-5.404-9.781-9.761h.017Zm40.823 71.922c-4.38-.089-9.72-5.433-9.758-9.767 4.365.078 9.7 5.416 9.758 9.767Zm4.066-17.266c-.052-4.262 5.275-9.617 9.819-9.784-.63 4.918-5.373 9.611-9.819 9.796v-.012ZM84.458 70.55c-4.03-.035-9.27-4.444-9.865-9.75 4.63.32 9.395 5.065 9.876 9.761l-.011-.011Zm13.813 35.139c-.487 4.777-5.238 9.511-9.785 9.828.084-3.96 4.464-9.287 9.802-9.816l-.017-.012Zm-.032-62.187c-.236 4.567-4.944 9.312-9.727 9.885-.454-3.89 4.84-9.303 9.744-9.873l-.017-.012Zm-23.597-13.74c4.316 0 9.651 5.331 9.784 9.749-4.32-.015-9.67-5.35-9.773-9.738l-.011-.012Zm50.84 77.878h-14.748V17.266H20.932V3.094h104.55V107.64Z" fill="#C00D0D"/></g><defs><clipPath id="clip0_15_1275"><path fill="#fff" d="M0 0h128.576v128H0z"/></clipPath></defs></svg>