<svg width="128" height="128" fill="none" xmlns="http://www.w3.org/2000/svg"><g clip-path="url('#clip0_52_1095')"><path d="M107.996 0 93.252 6.306 78.509 0 63.764 6.306 49.035 0 34.28 6.306 19.541 0 3 7.075v120.938h121.536V7.075L107.996 0ZM41.539 71.574a4.061 4.061 0 1 1-4.06-4.058 4.068 4.068 0 0 1 4.06 4.058Zm-4.73-34.841a4.849 4.849 0 1 1-1.418-3.421 4.855 4.855 0 0 1 1.419 3.433v-.012Zm-9.773 42.134a6.384 6.384 0 1 1-6.38 6.397 6.391 6.391 0 0 1 6.38-6.385v-.013Zm52.693-46.035a4.691 4.691 0 1 1-4.692 4.689 4.695 4.695 0 0 1 4.692-4.676v-.013Zm26.012 19.943a8.12 8.12 0 1 1-8.119-8.119 8.13 8.13 0 0 1 8.119 8.132v-.013Zm-13.479 26.05a3.57 3.57 0 1 1-7.14.007 3.57 3.57 0 0 1 7.14-.006Zm28.692 45.587H6.598v-12.086h114.344l.012 12.086Zm0-15.469H6.598v-5.259h114.344l.012 5.259Z" fill="#C00D0D"/></g><defs><clipPath id="clip0_52_1095"><path fill="#fff" transform="translate(3)" d="M0 0h121.536v128H0z"/></clipPath></defs></svg>