<svg xmlns="http://www.w3.org/2000/svg" width="138" height="137" fill="none"><g fill="#C00D0D" clip-path="url('#a')"><path d="M75.99 123.537v-13.841a55.403 55.403 0 0 0 47.529-61.829 54.926 54.926 0 0 0-88.124-36.336A54.928 54.928 0 0 0 15.339 43.44a52.874 52.874 0 0 0 5.225 37.097C29.56 96.99 43.64 106.465 61.95 109.476v14.181H.62V137h136.76v-13.463H75.99ZM27.725 54.748A41.346 41.346 0 1 1 68.85 96.094a41.426 41.426 0 0 1-41.126-41.346Z"/><path d="m59.835 54.569 9.215 9.414 24.89-25.17-8.835-8.597-25.27 24.353Z"/></g><defs><clipPath id="a"><path fill="#fff" d="M.62 0h136.76v137H.62z"/></clipPath></defs></svg>