<svg width="25" height="25" fill="none" xmlns="http://www.w3.org/2000/svg"><path d="M12.5 9.897a2.62 2.62 0 0 1 2.603 2.603c0 1.473-1.179 2.652-2.603 2.652A2.64 2.64 0 0 1 9.848 12.5c0-1.424 1.179-2.603 2.652-2.603Zm6.09-2.013c.441 1.031.343 3.486.343 4.616 0 1.179.098 3.634-.344 4.665a2.432 2.432 0 0 1-1.473 1.473c-1.031.442-3.486.344-4.616.344-1.179 0-3.634.098-4.665-.344a2.432 2.432 0 0 1-1.473-1.473c-.393-1.031-.344-3.486-.344-4.665 0-1.13-.05-3.585.344-4.616A2.432 2.432 0 0 1 7.835 6.41c1.031-.442 3.486-.344 4.665-.344 1.13 0 3.585-.098 4.616.344a2.432 2.432 0 0 1 1.473 1.473Zm-6.09 8.643v.049a4.045 4.045 0 0 0 4.027-4.027V12.5c0-2.21-1.817-4.027-4.027-4.027A4.013 4.013 0 0 0 8.473 12.5c0 2.259 1.768 4.027 4.027 4.027Zm4.174-7.268a.932.932 0 1 0 0-1.866.903.903 0 0 0-.933.933c0 .54.393.933.933.933ZM21.143 1.5c1.277 0 2.357 1.08 2.357 2.357v17.286a2.358 2.358 0 0 1-2.357 2.357H3.857A2.327 2.327 0 0 1 1.5 21.143V3.857A2.358 2.358 0 0 1 3.857 1.5h17.286Zm-.884 14.241c.098-1.277.098-5.156 0-6.433-.05-1.277-.344-2.406-1.228-3.29-.933-.933-2.062-1.228-3.29-1.277-1.326-.098-5.205-.098-6.482 0-1.277.05-2.406.344-3.29 1.228-.933.933-1.228 2.062-1.277 3.29-.098 1.326-.098 5.205 0 6.482.05 1.277.344 2.406 1.277 3.29.884.933 2.013 1.228 3.29 1.277 1.277.098 5.156.098 6.482 0 1.228-.05 2.357-.344 3.29-1.277.884-.884 1.179-2.013 1.228-3.29Z" fill="#C00D0D"/></svg>