<svg aria-hidden="true" style="width:0;height:0;position:absolute;overflow:hidden" xmlns="http://www.w3.org/2000/svg"><defs><symbol id="icon-swiper-icon-100" viewBox="0 0 278 32"><path d="M0 .269h277.456V31.73H0V.269z"/></symbol><symbol id="icon-swiper-icon-200" viewBox="0 0 278 32"><path d="M0 .269h277.456V31.73H0V.269z"/></symbol><symbol id="icon-swiper-icon-300" viewBox="0 0 278 32"><path d="M0 .269h277.456V31.73H0V.269z"/></symbol><symbol id="icon-swiper-icon-500" viewBox="0 0 278 32"><path d="M0 .269h277.456V31.73H0V.269z"/></symbol><symbol id="icon-swiper-icon-800" viewBox="0 0 278 32"><path d="M0 .269h277.456V31.73H0V.269z"/></symbol><symbol id="icon-swiper-icon-1000" viewBox="0 0 278 32"><path d="M0 .269h277.456V31.73H0V.269z"/></symbol><symbol id="icon-facebook" viewBox="0 0 32 32"><path d="M27 2.001H4.999a3 3 0 0 0-3 2.999v22.001A3 3 0 0 0 4.998 30h8.58v-9.519H9.641v-4.48h3.937v-3.415c0-3.885 2.313-6.029 5.855-6.029 1.696 0 3.469.301 3.469.301v3.813h-1.953c-1.926 0-2.527 1.196-2.527 2.42V16h4.298l-.687 4.48h-3.61v9.521h8.579a3 3 0 0 0 2.999-2.999V5a3 3 0 0 0-3-3z"/></symbol><symbol id="icon-instagram" viewBox="0 0 32 32"><path d="M16 12.668a3.354 3.354 0 0 1 3.332 3.331V16c0 1.885-1.509 3.395-3.332 3.395h-.015a3.38 3.38 0 0 1-3.379-3.379V16v.001c0-1.823 1.509-3.332 3.395-3.332zm7.795-2.576c.564 1.32.439 4.462.439 5.908 0 1.509.125 4.652-.44 5.971a3.133 3.133 0 0 1-1.864 1.879l-.022.007c-1.32.566-4.462.44-5.908.44-1.509 0-4.652.125-5.971-.44a3.133 3.133 0 0 1-1.879-1.864l-.007-.022c-.503-1.32-.44-4.462-.44-5.971 0-1.446-.064-4.589.44-5.908a3.134 3.134 0 0 1 1.864-1.88l.022-.007c1.32-.566 4.462-.44 5.971-.44 1.446 0 4.589-.125 5.908.44a3.133 3.133 0 0 1 1.879 1.864l.007.022zM16 21.155v.063a5.178 5.178 0 0 0 5.155-5.153v-.064c0-2.829-2.326-5.155-5.155-5.155h-.018a5.137 5.137 0 0 0-5.137 5.137v.019-.001c0 2.892 2.263 5.155 5.155 5.155zm5.343-9.303a1.194 1.194 0 1 0 0-2.388l-.039-.001c-.638 0-1.156.518-1.156 1.156l.001.041v-.002c0 .691.503 1.194 1.194 1.194zm5.72-9.932c1.635 0 3.017 1.382 3.017 3.017v22.126a3.019 3.019 0 0 1-3.017 3.017H4.898a2.98 2.98 0 0 1-2.979-2.979v-.041.002V4.936a3.019 3.019 0 0 1 3.017-3.017h22.126zm-1.131 18.228c.125-1.635.125-6.6 0-8.234-.064-1.635-.44-3.08-1.572-4.211-1.194-1.194-2.639-1.572-4.211-1.635-1.697-.125-6.662-.125-8.297 0-1.635.064-3.08.44-4.211 1.572-1.194 1.194-1.572 2.639-1.635 4.211-.125 1.697-.125 6.662 0 8.297.064 1.635.44 3.08 1.635 4.211 1.132 1.194 2.577 1.572 4.211 1.635 1.635.125 6.6.125 8.297 0 1.572-.064 3.017-.44 4.211-1.635 1.132-1.132 1.509-2.577 1.572-4.211z"/></symbol><symbol id="icon-email" viewBox="0 0 32 32"><path d="M31.393 11.924a.376.376 0 0 1 .606.294v12.781a3 3 0 0 1-3 3H3a3 3 0 0 1-3-3V12.225c0-.312.356-.488.607-.294 1.399 1.088 3.256 2.469 9.631 7.1 1.318.963 3.544 2.988 5.763 2.975 2.231.019 4.5-2.049 5.769-2.975 6.374-4.631 8.225-6.019 9.626-7.107zM16 20c1.45.026 3.538-1.825 4.588-2.587 8.294-6.02 8.925-6.545 10.838-8.045.362-.282.575-.718.575-1.181V7.002a3 3 0 0 0-3-3H3.002a3 3 0 0 0-3 2.999v1.187c0 .463.212.895.576 1.181 1.911 1.494 2.543 2.025 10.836 8.045 1.05.762 3.137 2.611 4.588 2.587z"/></symbol><symbol id="icon-characteristics-6" viewBox="0 0 32 32"><path d="M18.979 15.296V0H9.25v15.296c-2.541 1.633-4.2 4.445-4.2 7.645 0 5.003 4.055 9.058 9.058 9.058s9.058-4.055 9.058-9.058v-.033a9.004 9.004 0 0 0-4.151-7.59l-.036-.022zm-4.871 13.781a6.137 6.137 0 0 1-5.955-4.684l-.009-.042a6.133 6.133 0 0 1 3.187-6.877l.035-.016.824-.412V2.928h3.879v14.123l.824.412c2.026 1.029 3.39 3.097 3.39 5.484a6.131 6.131 0 0 1-6.131 6.131h-.045.002z"/><path d="M14.783 19.763V7.546h-1.462v12.216a3.44 3.44 0 0 0-2.703 3.355 3.434 3.434 0 1 0 4.188-3.351l-.023-.004zm12.385-9.157h-6.407v1.721h6.407v-1.721zm0-3.952h-6.407v1.721h6.407V6.654zm0-3.949h-6.407v1.721h6.407V2.705z"/></symbol><symbol id="icon-characteristics-5" viewBox="0 0 32 32"><path d="M16.707 8.549a7.33 7.33 0 1 0 6.811 7.329v-.07a7.272 7.272 0 0 0-6.789-7.256l-.022-.001zm-.639 11.499a4.176 4.176 0 1 1 4.339-4.173l-.001.096v-.005a4.141 4.141 0 0 1-4.347 4.081h.01zm16.018-5.355h-3.687c.864-.812 1.668-1.577 1.81-1.688l-1.092-1.234c-.335.296-3.699 3.466-3.845 3.6l-.678.631 4.535 3.837 1.065-1.258-1.723-1.459h3.616v-2.429zM16.395 7.634l3.833-4.523-1.254-1.065-1.522 1.794V-.001h-2.366V3.84c-.84-.875-1.534-1.636-1.664-1.778l-1.286 1.029c.3.375 3.076 3.296 3.628 3.876l.631.666zm-.157 16.578-3.837 4.527 1.254 1.065 1.475-1.715v3.912h2.421v-4.003l1.703 1.822 1.234-1.088c-.296-.335-3.466-3.699-3.6-3.845l-.651-.674zM2.436 13.265l1.869 1.577H.145v2.405h3.99c-.469.446-1.017.961-1.569 1.472l-.115.105L3.48 20.11c.394-.3 3.296-3.076 3.876-3.628l.674-.639-4.531-3.837-1.065 1.258z"/></symbol><symbol id="icon-characteristics-4" viewBox="0 0 32 32"><path d="M31.049 4.572C29.03.424 27.113-.081 25.316.03s-2.695 1.468-3.381 2.483c-.25.382-.514.715-.805 1.022l.003-.003c-.323-.3-.611-.63-.86-.989l-.013-.02C19.453 1.463 18.347 0 16.394 0h-.076c-1.973 0-3.164 1.418-4.037 2.458-.303.358-.954 1.125-1.12 1.105a4.637 4.637 0 0 1-.877-1.021l-.011-.019C9.556 1.514 8.577.131 6.791 0 3.763-.187 1.745 3.3 1.088 4.441l-.242.434L1.063 32h30.163V4.941l-.177-.368zm-3.406 23.84H4.621L4.439 5.839c1.216-1.978 1.958-2.215 2.094-2.246a5.6 5.6 0 0 1 .813 1.009c.732 1.035 1.736 2.448 3.588 2.554 2.019.116 3.21-1.322 4.093-2.372.439-.505 1.01-1.176 1.297-1.176.217 0 .802.767 1.08 1.131.813 1.065 1.923 2.523 3.891 2.417 1.877-.101 2.912-1.62 3.598-2.629.222-.347.453-.649.707-.93l-.005.006c.389 0 1.009.141 2.044 2.18l.005 22.629z"/><path d="M14.239 16.341c-.642-.535-1.637-.802-2.982-.802h-.777l.151-1.817h3.982v-1.771H8.789l-.505 5.375h2.442a3.37 3.37 0 0 1 1.746.347l-.02-.009c.304.178.506.503.506.875l-.001.051v-.002a1.037 1.037 0 0 1-.47.911l-.004.002a2.255 2.255 0 0 1-1.318.328h.006a4.879 4.879 0 0 1-1.493-.232l.035.01a4.24 4.24 0 0 1-1.263-.644l.011.008-.873 1.691a4.987 4.987 0 0 0 1.62.749l.035.008a7.381 7.381 0 0 0 1.983.267h.001l.148.002a5.09 5.09 0 0 0 2.085-.444l-.032.013a3.109 3.109 0 0 0 1.325-1.134l.007-.012c.273-.446.434-.985.434-1.562v-.029.001a2.657 2.657 0 0 0-.95-2.177l-.004-.003zm8.059-3.967c-.603-.368-1.332-.585-2.112-.585s-1.509.218-2.13.596l.018-.01a4.007 4.007 0 0 0-1.443 1.671l-.01.025a6.093 6.093 0 0 0-.505 2.664v-.01a6.174 6.174 0 0 0 .52 2.689l-.016-.04c.321.704.819 1.28 1.438 1.687l.015.009c.602.371 1.331.59 2.112.59s1.51-.22 2.13-.601l-.018.01a3.91 3.91 0 0 0 1.443-1.671l.01-.024a6.083 6.083 0 0 0 .505-2.659v.01a6.188 6.188 0 0 0-.505-2.654 3.945 3.945 0 0 0-1.438-1.687l-.015-.009zm-.762 6.666a1.61 1.61 0 0 1-2.722.006l-.004-.006a4.19 4.19 0 0 1-.504-2.329l-.001.014a4.224 4.224 0 0 1 .516-2.338l-.011.022a1.612 1.612 0 0 1 2.722-.007l.004.007a4.19 4.19 0 0 1 .504 2.329l.001-.014a4.224 4.224 0 0 1-.516 2.338l.011-.022z"/></symbol><symbol id="icon-characteristics-3" viewBox="0 0 32 32"><path d="M17.75 28.855v-3.233c6.36-.886 11.203-6.289 11.203-12.824 0-.57-.037-1.132-.108-1.683l.007.065C28.006 4.841 22.632.002 16.129.002A12.774 12.774 0 0 0 8.24 2.714l.028-.021a12.858 12.858 0 0 0-4.669 7.368l-.016.085a12.04 12.04 0 0 0-.304 2.722c0 2.18.565 4.228 1.556 6.006l-.032-.063c2.101 3.843 5.39 6.056 9.667 6.759v3.312H.145v3.117h31.944v-3.145H17.75zM6.476 12.788c0-5.334 4.324-9.657 9.657-9.657s9.657 4.324 9.657 9.657-4.324 9.657-9.657 9.657h-.054.003c-5.307-.04-9.596-4.346-9.606-9.656v-.001z"/><path d="m13.976 12.746 2.152 2.199 5.814-5.879-2.064-2.008-5.902 5.688z"/></symbol><symbol id="icon-characteristics-2" viewBox="0 0 32 32"><path d="M31.271 25.121H.845V32h30.426v-6.879zm0-10.48H.845v4.131h30.426v-4.131zm0-8.57H.845v2.754h30.426V6.071zm0-6.071H.845v1.377h30.426V0z"/></symbol><symbol id="icon-characteristics-1" viewBox="0 0 32 32"><path d="M3.648 0v32h24.914V0H3.648zm21.956 29.042H6.606V2.958h18.998v26.084z"/><path d="M16.106 24.835c3.599 0 6.532-3.166 6.532-7.073 0-5.043-5.634-10.202-5.871-10.402l-.662-.599-.662.599c-.241.221-5.871 5.38-5.871 10.402 0 3.907 2.929 7.073 6.532 7.073zm0-15.369c1.406 1.448 4.577 5.055 4.577 8.321-.017 2.792-2.055 5.097-4.577 5.097s-4.552-2.305-4.552-5.109c0-3.254 3.145-6.861 4.552-8.309z"/></symbol><symbol id="icon-characteristics-6-2" viewBox="0 0 32 32"><path d="M18.979 15.296V0H9.25v15.296a9.056 9.056 0 0 0-2.862 12.381 9.062 9.062 0 0 0 7.867 4.32 9.062 9.062 0 0 0 7.724-4.572 9.046 9.046 0 0 0 1.188-4.488 9.008 9.008 0 0 0-4.188-7.642zm-4.871 13.781a6.134 6.134 0 0 1-2.742-11.62l.823-.412V2.927h3.879V17.05l.823.412a6.129 6.129 0 0 1 3.222 6.914 6.132 6.132 0 0 1-6.006 4.702z"/><path d="M14.783 19.763V7.547h-1.462v12.216a3.434 3.434 0 1 0 1.462 0zM27.168 10.606h-6.407v1.721h6.407v-1.721zM27.168 6.654h-6.407v1.721h6.407V6.654zM27.168 2.705h-6.407v1.721h6.407V2.705z"/></symbol><symbol id="icon-characteristics-5-2" viewBox="0 0 32 32"><path d="M16.707 8.549a7.33 7.33 0 1 0 6.809 7.327 7.269 7.269 0 0 0-6.81-7.326zm-.639 11.499a4.178 4.178 0 0 1-3.905-5.12 4.178 4.178 0 0 1 3.368-3.17 4.171 4.171 0 0 1 4.225 1.881c.44.695.666 1.505.648 2.327a4.132 4.132 0 0 1-1.303 2.961 4.146 4.146 0 0 1-3.035 1.12zM32.086 14.693h-3.687c.864-.812 1.668-1.577 1.81-1.688l-1.092-1.234c-.335.296-3.699 3.466-3.845 3.6l-.678.631 4.535 3.837 1.065-1.258-1.723-1.459h3.616v-2.429zM16.395 7.634l3.833-4.523-1.254-1.065-1.522 1.794V-.001h-2.366V3.84c-.84-.875-1.534-1.636-1.664-1.778l-1.286 1.029c.3.375 3.076 3.297 3.628 3.876l.631.666zM16.238 24.212l-3.837 4.527 1.254 1.065 1.475-1.715v3.912h2.421v-4.003l1.704 1.822 1.234-1.088c-.296-.335-3.466-3.699-3.6-3.845l-.651-.674zM2.436 13.265l1.869 1.577H.145v2.405h3.991c-.832.789-1.546 1.451-1.684 1.577l1.029 1.285c.394-.3 3.297-3.076 3.876-3.628l.674-.639L3.5 12.005l-1.065 1.258z"/></symbol><symbol id="icon-characteristics-4-2" viewBox="0 0 32 32"><path d="M31.049 4.572C29.03.424 27.113-.081 25.316.03s-2.695 1.469-3.381 2.483a7.053 7.053 0 0 1-.802 1.019 5.998 5.998 0 0 1-.873-1.009C19.453 1.463 18.347 0 16.394 0h-.076c-1.973 0-3.164 1.418-4.037 2.458-.303.358-.954 1.125-1.12 1.105a4.58 4.58 0 0 1-.888-1.04C9.556 1.514 8.577.131 6.791 0 3.763-.187 1.744 3.3 1.088 4.441l-.242.434L1.063 32h30.163V4.941l-.177-.368zm-3.406 23.84H4.621L4.439 5.839c1.216-1.978 1.958-2.215 2.094-2.246a5.6 5.6 0 0 1 .813 1.009c.732 1.035 1.736 2.448 3.588 2.554 2.019.116 3.21-1.322 4.093-2.372.439-.505 1.009-1.176 1.297-1.176.217 0 .802.767 1.08 1.13.813 1.065 1.923 2.523 3.891 2.417 1.877-.101 2.912-1.62 3.598-2.629.208-.327.442-.636.701-.923.389 0 1.009.141 2.044 2.18l.005 22.629z"/><path d="M14.239 16.341c-.643-.535-1.637-.802-2.982-.802h-.777l.151-1.817h3.982v-1.771H8.789l-.505 5.375h2.443a3.386 3.386 0 0 1 1.726.338 1.01 1.01 0 0 1 .504.924 1.046 1.046 0 0 1-.474.914c-.394.24-.852.354-1.312.328a4.9 4.9 0 0 1-1.458-.222 4.24 4.24 0 0 1-1.252-.636l-.873 1.691a5.036 5.036 0 0 0 1.655.757 7.505 7.505 0 0 0 1.983.267 5.103 5.103 0 0 0 2.2-.429 3.088 3.088 0 0 0 1.332-1.146c.289-.48.439-1.03.434-1.59a2.654 2.654 0 0 0-.954-2.18zM22.298 12.374a4.103 4.103 0 0 0-4.224 0 3.974 3.974 0 0 0-1.453 1.696 6.203 6.203 0 0 0-.505 2.654c-.029.91.144 1.814.505 2.649a3.955 3.955 0 0 0 1.453 1.696 4.074 4.074 0 0 0 4.224 0c.64-.411 1.145-1 1.453-1.696.361-.835.534-1.74.505-2.649a6.186 6.186 0 0 0-.505-2.654 3.911 3.911 0 0 0-1.453-1.696zm-.762 6.667a1.619 1.619 0 0 1-1.362.753 1.605 1.605 0 0 1-1.362-.753 4.245 4.245 0 0 1-.505-2.316 4.243 4.243 0 0 1 .505-2.316 1.619 1.619 0 0 1 1.362-.753 1.605 1.605 0 0 1 1.362.753c.385.709.56 1.512.505 2.316a4.243 4.243 0 0 1-.505 2.316z"/></symbol><symbol id="icon-characteristics-3-2" viewBox="0 0 32 32"><path d="M17.75 28.855v-3.233A12.943 12.943 0 0 0 28.852 11.18a12.831 12.831 0 0 0-25.268-1.035 12.35 12.35 0 0 0 1.221 8.665c2.101 3.843 5.39 6.056 9.667 6.76v3.312H.147v3.117h31.944v-3.145H17.752zM6.476 12.788a9.649 9.649 0 0 1 5.973-8.927 9.66 9.66 0 0 1 13.162 7.074 9.65 9.65 0 0 1-4.15 9.907 9.659 9.659 0 0 1-5.379 1.603 9.677 9.677 0 0 1-9.606-9.657z"/><path d="m13.976 12.746 2.152 2.199 5.814-5.879-2.064-2.008-5.902 5.688z"/></symbol><symbol id="icon-characteristics-2-2" viewBox="0 0 32 32"><path d="M31.271 25.121H.845V32h30.426v-6.879zM31.271 14.64H.845v4.131h30.426V14.64zM31.271 6.071H.845v2.754h30.426V6.071zM31.271 0H.845v1.377h30.426V0z"/></symbol><symbol id="icon-characteristics-1-2" viewBox="0 0 32 32"><path d="M3.648 0v32h24.914V0H3.648zm21.956 29.042H6.606V2.959h18.998v26.083z"/><path d="M16.106 24.835c3.599 0 6.532-3.166 6.532-7.073 0-5.043-5.634-10.202-5.871-10.402l-.662-.599-.662.599c-.241.221-5.871 5.38-5.871 10.402 0 3.907 2.929 7.073 6.532 7.073zm0-15.369c1.406 1.448 4.577 5.055 4.577 8.321-.017 2.792-2.055 5.097-4.577 5.097s-4.552-2.305-4.552-5.109c0-3.254 3.146-6.861 4.552-8.309z"/></symbol><symbol id="icon-favicon" viewBox="0 0 49 32"><path d="M0 0h48.941v32H0V0z"/></symbol><symbol id="icon-phone" viewBox="0 0 30 32"><path d="M9.815 2.226A2.374 2.374 0 0 0 6.994.845L1.756 2.274A2.388 2.388 0 0 0 0 4.572c0 14.726 11.94 26.667 26.667 26.667 1.071 0 2.012-.72 2.298-1.756l1.429-5.238a2.375 2.375 0 0 0-1.381-2.822l-5.714-2.381a2.374 2.374 0 0 0-2.756.69l-2.405 2.935a20.118 20.118 0 0 1-9.565-9.565l2.935-2.399a2.376 2.376 0 0 0 .69-2.756L9.817 2.233v-.006z"/></symbol><symbol id="icon-burger-menu" viewBox="0 0 32 32"><path d="M4 24v-2.667h24V24H4zm0-6.667v-2.667h24v2.667H4zm0-6.666V8h24v2.667H4z"/></symbol></defs></svg>