<svg aria-hidden="true" style="width:0;height:0;position:absolute;overflow:hidden" xmlns="http://www.w3.org/2000/svg"><defs><symbol id="icon-facebook" viewBox="0 0 32 32"><path d="M27 2.001H4.999a3 3 0 0 0-3 2.999v22.001A3 3 0 0 0 4.998 30h8.58v-9.519H9.641v-4.48h3.937v-3.415c0-3.885 2.313-6.029 5.855-6.029 1.696 0 3.469.301 3.469.301v3.813h-1.953c-1.926 0-2.527 1.196-2.527 2.42V16h4.298l-.687 4.48h-3.61v9.521h8.579a3 3 0 0 0 2.999-2.999V5a3 3 0 0 0-3-3z"/></symbol><symbol id="icon-instagram" viewBox="0 0 32 32"><path d="M16 12.668a3.354 3.354 0 0 1 3.332 3.331V16c0 1.885-1.509 3.395-3.332 3.395h-.015a3.38 3.38 0 0 1-3.379-3.379V16v.001c0-1.823 1.509-3.332 3.395-3.332zm7.795-2.576c.564 1.32.439 4.462.439 5.908 0 1.509.125 4.652-.44 5.971a3.133 3.133 0 0 1-1.864 1.879l-.022.007c-1.32.566-4.462.44-5.908.44-1.509 0-4.652.125-5.971-.44a3.133 3.133 0 0 1-1.879-1.864l-.007-.022c-.503-1.32-.44-4.462-.44-5.971 0-1.446-.064-4.589.44-5.908a3.134 3.134 0 0 1 1.864-1.88l.022-.007c1.32-.566 4.462-.44 5.971-.44 1.446 0 4.589-.125 5.908.44a3.133 3.133 0 0 1 1.879 1.864l.007.022zM16 21.155v.063a5.178 5.178 0 0 0 5.155-5.153v-.064c0-2.829-2.326-5.155-5.155-5.155h-.018a5.137 5.137 0 0 0-5.137 5.137v.019-.001c0 2.892 2.263 5.155 5.155 5.155zm5.343-9.303a1.194 1.194 0 1 0 0-2.388l-.039-.001c-.638 0-1.156.518-1.156 1.156l.001.041v-.002c0 .691.503 1.194 1.194 1.194zm5.72-9.932c1.635 0 3.017 1.382 3.017 3.017v22.126a3.019 3.019 0 0 1-3.017 3.017H4.898a2.98 2.98 0 0 1-2.979-2.979v-.041.002V4.936a3.019 3.019 0 0 1 3.017-3.017h22.126zm-1.131 18.228c.125-1.635.125-6.6 0-8.234-.064-1.635-.44-3.08-1.572-4.211-1.194-1.194-2.639-1.572-4.211-1.635-1.697-.125-6.662-.125-8.297 0-1.635.064-3.08.44-4.211 1.572-1.194 1.194-1.572 2.639-1.635 4.211-.125 1.697-.125 6.662 0 8.297.064 1.635.44 3.08 1.635 4.211 1.132 1.194 2.577 1.572 4.211 1.635 1.635.125 6.6.125 8.297 0 1.572-.064 3.017-.44 4.211-1.635 1.132-1.132 1.509-2.577 1.572-4.211z"/></symbol><symbol id="icon-email" viewBox="0 0 32 32"><path d="M31.393 11.924a.376.376 0 0 1 .606.294v12.781a3 3 0 0 1-3 3H3a3 3 0 0 1-3-3V12.225c0-.312.356-.488.607-.294 1.399 1.088 3.256 2.469 9.631 7.1 1.318.963 3.544 2.988 5.763 2.975 2.231.019 4.5-2.049 5.769-2.975 6.374-4.631 8.225-6.019 9.626-7.107zM16 20c1.45.026 3.538-1.825 4.588-2.587 8.294-6.02 8.925-6.545 10.838-8.045.362-.282.575-.718.575-1.181V7.002a3 3 0 0 0-3-3H3.002a3 3 0 0 0-3 2.999v1.187c0 .463.212.895.576 1.181 1.911 1.494 2.543 2.025 10.836 8.045 1.05.762 3.137 2.611 4.588 2.587z"/></symbol><symbol id="icon-favicon" viewBox="0 0 49 32"><path d="M0 0h48.941v32H0V0z"/></symbol><symbol id="icon-phone" viewBox="0 0 30 32"><path d="M9.815 2.226A2.374 2.374 0 0 0 6.994.845L1.756 2.274A2.388 2.388 0 0 0 0 4.572c0 14.726 11.94 26.667 26.667 26.667 1.071 0 2.012-.72 2.298-1.756l1.429-5.238a2.375 2.375 0 0 0-1.381-2.822l-5.714-2.381a2.374 2.374 0 0 0-2.756.69l-2.405 2.935a20.118 20.118 0 0 1-9.565-9.565l2.935-2.399a2.376 2.376 0 0 0 .69-2.756L9.817 2.233v-.006z"/></symbol><symbol id="icon-burger-menu" viewBox="0 0 32 32"><path d="M4 24v-2.667h24V24H4zm0-6.667v-2.667h24v2.667H4zm0-6.666V8h24v2.667H4z"/></symbol><symbol id="icon-close-cross" viewBox="0 0 32 32"><path d="M32 3.223 28.777 0 16 12.777 3.223 0 0 3.223 12.777 16 0 28.777 3.223 32 16 19.223 28.777 32 32 28.777 19.223 16 32 3.223z"/></symbol></defs></svg>