<svg width="128" height="128" viewBox="0 0 128 128" fill="none" xmlns="http://www.w3.org/2000/svg">
<g clip-path="url(#clip0_52_1095)">
<path d="M107.996 0L93.252 6.30604L78.5085 0L63.765 6.30604L49.0341 0L34.2811 6.30604L19.5407 0L3 7.07538V128.013H124.536V7.07538L107.996 0ZM41.5394 71.5736C41.54 72.3769 41.3023 73.1624 40.8565 73.8306C40.4106 74.4989 39.7766 75.0199 39.0346 75.3278C38.2926 75.6356 37.4759 75.7165 36.6879 75.5602C35.8999 75.4038 35.176 75.0173 34.6078 74.4495C34.0395 73.8816 33.6524 73.158 33.4955 72.3701C33.3385 71.5823 33.4187 70.7656 33.726 70.0233C34.0333 69.2811 34.5538 68.6466 35.2217 68.2003C35.8896 67.7539 36.6749 67.5156 37.4783 67.5156C38.5543 67.5173 39.5858 67.9453 40.3469 68.7058C41.1081 69.4664 41.5369 70.4976 41.5394 71.5736ZM36.8098 36.7327C36.8105 37.6919 36.5266 38.6298 35.9941 39.4277C35.4616 40.2256 34.7045 40.8476 33.8184 41.2151C32.9324 41.5827 31.9573 41.6791 31.0164 41.4924C30.0755 41.3056 29.2111 40.844 28.5326 40.166C27.8541 39.4879 27.3919 38.6238 27.2046 37.6831C27.0172 36.7423 27.113 35.7671 27.48 34.8808C27.8469 33.9945 28.4685 33.237 29.266 32.704C30.0635 32.171 31.0012 31.8865 31.9605 31.8865C33.2477 31.8882 34.4817 32.4009 35.391 33.312C36.3003 34.2231 36.8107 35.458 36.8098 36.7453V36.7327ZM27.0355 78.8665C28.298 78.8652 29.5326 79.2383 30.5831 79.9386C31.6337 80.6389 32.453 81.6349 32.9376 82.8007C33.4222 83.9665 33.5503 85.2499 33.3056 86.4885C33.061 87.7271 32.4547 88.8654 31.5632 89.7594C30.6718 90.6535 29.5353 91.2632 28.2974 91.5115C27.0596 91.7598 25.7758 91.6356 24.6086 91.1544C23.4413 90.6733 22.4429 89.8569 21.7395 88.8084C21.0362 87.76 20.6594 86.5265 20.6569 85.264C20.6586 83.5722 21.3309 81.9501 22.5266 80.7533C23.7223 79.5564 25.3437 78.8824 27.0355 78.8791V78.8665ZM79.7287 32.8324C80.6568 32.8324 81.564 33.1076 82.3356 33.6233C83.1073 34.139 83.7086 34.8719 84.0636 35.7294C84.4186 36.5869 84.5113 37.5304 84.3301 38.4406C84.1488 39.3507 83.7016 40.1867 83.0452 40.8427C82.3887 41.4988 81.5524 41.9453 80.6421 42.126C79.7318 42.3067 78.7884 42.2133 77.9311 41.8577C77.0739 41.5022 76.3414 40.9003 75.8262 40.1284C75.3111 39.3564 75.0364 38.449 75.037 37.5209C75.0421 36.2796 75.5385 35.0908 76.4177 34.2145C77.2969 33.3382 78.4874 32.8458 79.7287 32.845V32.8324ZM105.741 52.7753C105.741 54.381 105.265 55.9508 104.373 57.2859C103.481 58.6211 102.213 59.6617 100.729 60.2763C99.2456 60.8908 97.6131 61.0515 96.0382 60.7383C94.4632 60.425 93.0166 59.6517 91.8811 58.5163C90.7457 57.3808 89.9724 55.9341 89.6591 54.3592C89.3458 52.7843 89.5066 51.1518 90.1211 49.6682C90.7356 48.1847 91.7763 46.9167 93.1114 46.0245C94.4466 45.1324 96.0163 44.6562 97.6221 44.6562C99.7769 44.6587 101.842 45.5167 103.365 47.0415C104.887 48.5663 105.742 50.6331 105.741 52.7879V52.7753ZM92.262 78.8255C92.2626 79.5317 92.0537 80.2222 91.6618 80.8096C91.2698 81.3971 90.7124 81.855 90.0601 82.1256C89.4078 82.3961 88.6899 82.4671 87.9972 82.3294C87.3046 82.1918 86.6683 81.8518 86.169 81.3525C85.6696 80.8531 85.3296 80.2169 85.192 79.5242C85.0544 78.8316 85.1253 78.1136 85.3959 77.4613C85.6664 76.809 86.1244 76.2516 86.7118 75.8596C87.2992 75.4677 87.9897 75.2588 88.6959 75.2594C89.6415 75.2603 90.548 75.6363 91.2166 76.3048C91.8852 76.9734 92.2612 77.88 92.262 78.8255ZM120.954 124.412H6.5976V112.326H120.942L120.954 124.412ZM120.954 108.943H6.5976V103.684H120.942L120.954 108.943Z" fill="#C00D0D"/>
</g>
<defs>
<clipPath id="clip0_52_1095">
<rect width="121.536" height="128" fill="white" transform="translate(3)"/>
</clipPath>
</defs>
</svg>
