<svg width="129" height="128" viewBox="0 0 129 128" fill="none" xmlns="http://www.w3.org/2000/svg">
<g clip-path="url(#clip0_52_1092)">
<path d="M124.436 108.114L124.944 122.088L89.7785 86.9226L66.8575 63.9984L124.951 5.9054L124.439 19.8862L127.772 20.004L128.5 0.00309995L108.496 0.731588L108.614 4.06403L122.588 3.55564L64.4984 61.6425L6.4054 3.54944L20.3862 4.06093L20.5071 0.728488L0.5031 0L1.23159 20.004L4.56403 19.8862L4.05564 5.9116L62.1425 63.9984L39.2215 86.9226L4.04944 122.095L4.56093 108.111L1.22849 107.993L0.5 127.994L20.504 127.268L20.3862 123.936L6.4116 124.444L41.5774 89.2785L64.5015 66.3575L87.4226 89.2785L122.595 124.451L108.611 123.939L108.493 127.272L128.494 128L127.768 107.996L124.436 108.114Z" fill="#C00D0D"/>
<path d="M1.53223 26.9292V100.141L38.1395 63.5365L1.53223 26.9292Z" fill="#C00D0D"/>
<path d="M127.567 100.141V26.9292L90.9595 63.5365L127.567 100.141Z" fill="#C00D0D"/>
<path d="M27.9438 126.552H101.155L64.5511 89.9451L27.9438 126.552Z" fill="#C00D0D"/>
<path d="M101.155 0.520752H27.9438L64.5511 37.125L101.155 0.520752Z" fill="#C00D0D"/>
</g>
<defs>
<clipPath id="clip0_52_1092">
<rect width="128" height="128" fill="white" transform="translate(0.5)"/>
</clipPath>
</defs>
</svg>
