<svg width="129" height="128" viewBox="0 0 129 128" fill="none" xmlns="http://www.w3.org/2000/svg">
<g clip-path="url(#clip0_15_1275)">
<path d="M17.8417 0V17.2662H0V128H110.734V110.734H128.576V0H17.8417ZM12.4921 60.7712C17.4216 61.4216 22.1439 66.2043 22.2763 70.6014C17.9511 70.5813 12.6043 65.2489 12.4921 60.7712ZM22.3338 101.706C17.7899 101.496 13.0245 96.7741 12.4403 91.9856C16.3137 91.5108 21.7122 96.7655 22.3338 101.706ZM36.0777 105.735C35.9741 110.13 30.6446 115.45 26.3108 115.491C26.3971 111.119 31.7554 105.77 36.0777 105.741V105.735ZM26.3137 84.4201C26.3655 80.0777 31.718 74.7223 36.0748 74.6561C36.0086 79.0158 30.682 84.3453 26.3137 84.4201ZM26.2705 53.3899C26.6388 48.7223 31.4158 43.9396 36.0345 43.5396C35.9885 47.5137 31.6317 52.8058 26.2705 53.3899ZM12.495 29.7727C16.8115 29.7727 22.1439 35.0993 22.2791 39.6029C17.3266 38.9324 12.5986 34.1439 12.495 29.7727ZM53.3583 101.683C49.0043 101.626 43.6604 96.2849 43.5942 91.9252C47.9165 91.9712 53.2576 97.3094 53.3439 101.683H53.3583ZM53.4101 70.5525C49.6115 70.5813 44.2014 66.3396 43.5309 60.8201C48.0921 61.0648 52.846 65.7871 53.3957 70.5525H53.4101ZM57.4129 84.4259C57.4129 80.1094 62.7626 74.7597 67.2403 74.6417C66.564 79.5942 61.7899 84.3166 57.3986 84.4259H57.4129ZM67.1396 105.706C67.0043 109.988 62.4173 115.053 57.3554 115.537C57.7986 110.791 62.5871 106.017 67.1252 105.706H67.1396ZM57.3554 53.3784C57.8158 48.6302 62.6043 43.859 67.1396 43.5482C66.9899 47.8302 62.4029 52.895 57.3381 53.3784H57.3554ZM43.5971 29.7669C47.9367 29.8158 53.2777 35.154 53.3612 39.5281C48.987 39.4647 43.646 34.1237 43.5799 29.7669H43.5971ZM84.4201 101.689C80.0403 101.6 74.6993 96.2561 74.6619 91.9223C79.0273 92 84.3626 97.3381 84.4201 101.689ZM88.4863 84.423C88.4345 80.1612 93.7611 74.8058 98.305 74.6388C97.6748 79.5568 92.9324 84.2504 88.4863 84.4345V84.423ZM84.4576 70.5496C80.4288 70.5151 75.1885 66.1065 74.5928 60.8C79.223 61.1194 83.9885 65.8647 84.4691 70.5611L84.4576 70.5496ZM98.2705 105.689C97.7842 110.466 93.0331 115.2 88.4863 115.517C88.5698 111.557 92.9496 106.23 98.2878 105.701L98.2705 105.689ZM98.2389 43.5022C98.0029 48.0691 93.295 52.8144 88.5122 53.3871C88.0576 49.4964 93.3525 44.0835 98.2561 43.5137L98.2389 43.5022ZM74.6417 29.7612C78.9583 29.7612 84.2935 35.0935 84.4259 39.5108C80.1065 39.4964 74.7568 34.1612 74.6532 29.7727L74.6417 29.7612ZM125.482 107.64H110.734V17.2662H20.9324V3.09353H125.482V107.64Z" fill="#C00D0D"/>
</g>
<defs>
<clipPath id="clip0_15_1275">
<rect width="128.576" height="128" fill="white"/>
</clipPath>
</defs>
</svg>
