<svg xmlns="http://www.w3.org/2000/svg" width="138" height="137" fill="none"><g fill="#C00D0D" clip-path="url(#a)"><path d="M81.254 65.486V0H39.6v65.486a38.78 38.78 0 1 0 59.58 32.716 38.586 38.586 0 0 0-17.926-32.716ZM60.4 124.485a26.263 26.263 0 0 1-25.532-20.232A26.266 26.266 0 0 1 48.66 74.74l3.526-1.763V12.533h16.605v60.462l3.526 1.763A26.248 26.248 0 0 1 60.4 124.485Z"/><path d="M63.291 84.612V32.31h-6.258v52.3a14.701 14.701 0 1 0 6.258 0ZM116.314 45.408H88.886v7.368h27.428v-7.368ZM116.314 28.486H88.886v7.368h27.428v-7.368ZM116.314 11.581H88.886v7.368h27.428v-7.368Z"/></g><defs><clipPath id="a"><path fill="#fff" d="M21.62 0h94.694v137H21.62z"/></clipPath></defs></svg>