<svg xmlns="http://www.w3.org/2000/svg" width="138" height="137" fill="none"><g fill="#C00D0D" clip-path="url(#a)"><path d="M15.62 0v137h106.665V0H15.62Zm93.999 124.335H28.285V12.665h81.334v111.67Z"/><path d="M68.952 106.326c15.409 0 27.967-13.556 27.967-30.282 0-21.59-24.12-43.678-25.134-44.533l-2.833-2.565-2.832 2.565c-1.033.945-25.134 23.033-25.134 44.533 0 16.726 12.54 30.282 27.966 30.282Zm0-65.801c6.021 6.199 19.595 21.643 19.595 35.626-.072 11.952-8.8 21.82-19.595 21.82-10.794 0-19.487-9.868-19.487-21.874 0-13.93 13.466-29.373 19.487-35.572Z"/></g><defs><clipPath id="a"><path fill="#fff" d="M15.62 0h106.664v137H15.62z"/></clipPath></defs></svg>