<svg xmlns="http://www.w3.org/2000/svg" width="138" height="137" fill="none"><g fill="#C00D0D" clip-path="url(#a)"><path d="M71.526 36.6a31.384 31.384 0 1 0 29.156 31.368 31.133 31.133 0 0 0-29.156-31.367ZM68.79 85.83a17.878 17.878 0 1 1 18.57-17.474 17.726 17.726 0 0 1-18.57 17.474ZM137.367 62.903h-15.785c3.697-3.477 7.141-6.753 7.749-7.225l-4.676-5.284c-1.435 1.266-15.836 14.84-16.461 15.413l-2.903 2.701 19.414 16.427 4.558-5.386-7.377-6.246h15.481v-10.4ZM70.192 32.684l16.41-19.364-5.369-4.558-6.516 7.681V0h-10.13v16.443c-3.596-3.748-6.567-7.006-7.124-7.614l-5.504 4.407c1.283 1.604 13.169 14.113 15.532 16.595l2.701 2.853ZM69.517 103.657 53.09 123.038l5.369 4.558 6.314-7.343V137h10.366v-17.136l7.293 7.8 5.284-4.66c-1.266-1.435-14.84-15.835-15.414-16.46l-2.785-2.887ZM10.429 56.792l8.002 6.753H.621v10.298h17.084a761.571 761.571 0 0 1-7.209 6.753l4.407 5.504c1.688-1.283 14.113-13.168 16.595-15.532l2.887-2.735-19.398-16.426-4.558 5.385Z"/></g><defs><clipPath id="a"><path fill="#fff" d="M.62 0h136.797v137H.62z"/></clipPath></defs></svg>