<svg width="25" height="25" viewBox="0 0 25 25" fill="none" xmlns="http://www.w3.org/2000/svg">
<path d="M12.5 9.89732C13.9241 9.89732 15.1027 11.0759 15.1027 12.5C15.1027 13.9732 13.9241 15.1518 12.5 15.1518C11.0268 15.1518 9.84822 13.9732 9.84822 12.5C9.84822 11.0759 11.0268 9.89732 12.5 9.89732ZM18.5893 7.88393C19.0312 8.91518 18.933 11.3705 18.933 12.5C18.933 13.6786 19.0312 16.1339 18.5893 17.1652C18.3438 17.8527 17.8036 18.3929 17.1161 18.6384C16.0848 19.0804 13.6295 18.9821 12.5 18.9821C11.3214 18.9821 8.86607 19.0804 7.83482 18.6384C7.14732 18.3929 6.60714 17.8527 6.36161 17.1652C5.96875 16.1339 6.01786 13.6786 6.01786 12.5C6.01786 11.3705 5.96875 8.91518 6.36161 7.88393C6.60714 7.19643 7.14732 6.65625 7.83482 6.41071C8.86607 5.96875 11.3214 6.06696 12.5 6.06696C13.6295 6.06696 16.0848 5.96875 17.1161 6.41071C17.8036 6.65625 18.3438 7.19643 18.5893 7.88393ZM12.5 16.5268V16.5759C14.7098 16.5759 16.5268 14.7589 16.5268 12.5491V12.5C16.5268 10.2902 14.7098 8.47321 12.5 8.47321C10.2411 8.47321 8.47321 10.2902 8.47321 12.5C8.47321 14.7589 10.2411 16.5268 12.5 16.5268ZM16.6741 9.25893C17.1652 9.25893 17.6071 8.86607 17.6071 8.32589C17.6071 7.78571 17.1652 7.39286 16.6741 7.39286C16.1339 7.39286 15.7411 7.78571 15.7411 8.32589C15.7411 8.86607 16.1339 9.25893 16.6741 9.25893ZM21.1429 1.5C22.4196 1.5 23.5 2.58036 23.5 3.85714V21.1429C23.5 22.4688 22.4196 23.5 21.1429 23.5H3.85714C2.53125 23.5 1.5 22.4688 1.5 21.1429V3.85714C1.5 2.58036 2.53125 1.5 3.85714 1.5H21.1429ZM20.2589 15.7411C20.3571 14.4643 20.3571 10.5848 20.2589 9.30804C20.2098 8.03125 19.9152 6.90179 19.0312 6.01786C18.0982 5.08482 16.9688 4.79018 15.7411 4.74107C14.4152 4.64286 10.5357 4.64286 9.25893 4.74107C7.98214 4.79018 6.85268 5.08482 5.96875 5.96875C5.03571 6.90179 4.74107 8.03125 4.69196 9.25893C4.59375 10.5848 4.59375 14.4643 4.69196 15.7411C4.74107 17.0179 5.03571 18.1473 5.96875 19.0312C6.85268 19.9643 7.98214 20.2589 9.25893 20.308C10.5357 20.4063 14.4152 20.4063 15.7411 20.308C16.9688 20.2589 18.0982 19.9643 19.0312 19.0312C19.9152 18.1473 20.2098 17.0179 20.2589 15.7411Z" fill="#C00D0D"/>
</svg>
