<svg aria-hidden="true" style="position: absolute; width: 0; height: 0; overflow: hidden;" version="1.1" xmlns="http://www.w3.org/2000/svg" xmlns:xlink="http://www.w3.org/1999/xlink">
<defs>
<symbol id="icon-swiper-icon-100" viewBox="0 0 278 32">
<path d="M0 0.269h277.456v31.461h-277.456v-31.461z"></path>
</symbol>
<symbol id="icon-swiper-icon-200" viewBox="0 0 278 32">
<path d="M0 0.269h277.456v31.461h-277.456v-31.461z"></path>
</symbol>
<symbol id="icon-swiper-icon-300" viewBox="0 0 278 32">
<path d="M0 0.269h277.456v31.461h-277.456v-31.461z"></path>
</symbol>
<symbol id="icon-swiper-icon-500" viewBox="0 0 278 32">
<path d="M0 0.269h277.456v31.461h-277.456v-31.461z"></path>
</symbol>
<symbol id="icon-swiper-icon-800" viewBox="0 0 278 32">
<path d="M0 0.269h277.456v31.461h-277.456v-31.461z"></path>
</symbol>
<symbol id="icon-swiper-icon-1000" viewBox="0 0 278 32">
<path d="M0 0.269h277.456v31.461h-277.456v-31.461z"></path>
</symbol>
<symbol id="icon-facebook" viewBox="0 0 32 32">
<path d="M27 2.001h-22.001c-1.657 0-3 1.343-3 2.999v22.001c0 1.656 1.343 2.999 2.999 2.999 0 0 0.001 0 0.001 0h8.579v-9.519h-3.937v-4.48h3.937v-3.415c0-3.885 2.313-6.029 5.855-6.029 1.696 0 3.469 0.301 3.469 0.301v3.813h-1.953c-1.926 0-2.527 1.196-2.527 2.42v2.909h4.298l-0.687 4.48h-3.61v9.521h8.576c0.001 0 0.002 0 0.003 0 1.656 0 2.999-1.343 2.999-2.999 0-0 0-0.001 0-0.001v0-22.001c0-1.657-1.343-3-3-3v0z"></path>
</symbol>
<symbol id="icon-instagram" viewBox="0 0 32 32">
<path d="M16 12.668c1.835 0.012 3.32 1.497 3.332 3.331v0.001c0 1.885-1.509 3.395-3.332 3.395-0.005 0-0.010 0-0.015 0-1.866 0-3.379-1.513-3.379-3.379 0-0.005 0-0.011 0-0.016v0.001c0-1.823 1.509-3.332 3.395-3.332zM23.795 10.092c0.564 1.32 0.439 4.462 0.439 5.908 0 1.509 0.125 4.652-0.44 5.971-0.321 0.882-1.004 1.564-1.864 1.879l-0.022 0.007c-1.32 0.566-4.462 0.44-5.908 0.44-1.509 0-4.652 0.125-5.971-0.44-0.882-0.321-1.564-1.004-1.879-1.864l-0.007-0.022c-0.503-1.32-0.44-4.462-0.44-5.971 0-1.446-0.064-4.589 0.44-5.908 0.321-0.882 1.004-1.565 1.864-1.88l0.022-0.007c1.32-0.566 4.462-0.44 5.971-0.44 1.446 0 4.589-0.125 5.908 0.44 0.882 0.321 1.564 1.004 1.879 1.864l0.007 0.022zM16 21.155v0.063c2.842-0.013 5.142-2.313 5.155-5.153v-0.064c0-2.829-2.326-5.155-5.155-5.155-0.005-0-0.012-0-0.018-0-2.837 0-5.137 2.3-5.137 5.137 0 0.006 0 0.013 0 0.019v-0.001c0 2.892 2.263 5.155 5.155 5.155zM21.343 11.852c0.66 0 1.194-0.535 1.194-1.194s-0.535-1.194-1.194-1.194v0c-0.012-0-0.025-0.001-0.039-0.001-0.638 0-1.156 0.518-1.156 1.156 0 0.014 0 0.027 0.001 0.041l-0-0.002c0 0.691 0.503 1.194 1.194 1.194zM27.063 1.92c1.635 0 3.017 1.382 3.017 3.017v22.126c-0.001 1.666-1.351 3.016-3.017 3.017h-22.126c-0.011 0-0.025 0-0.039 0-1.645 0-2.979-1.334-2.979-2.979 0-0.014 0-0.027 0-0.041l-0 0.002v-22.126c0.001-1.666 1.351-3.016 3.017-3.017h22.126zM25.932 20.148c0.125-1.635 0.125-6.6 0-8.234-0.064-1.635-0.44-3.080-1.572-4.211-1.194-1.194-2.639-1.572-4.211-1.635-1.697-0.125-6.662-0.125-8.297 0-1.635 0.064-3.080 0.44-4.211 1.572-1.194 1.194-1.572 2.639-1.635 4.211-0.125 1.697-0.125 6.662 0 8.297 0.064 1.635 0.44 3.080 1.635 4.211 1.132 1.194 2.577 1.572 4.211 1.635 1.635 0.125 6.6 0.125 8.297 0 1.572-0.064 3.017-0.44 4.211-1.635 1.132-1.132 1.509-2.577 1.572-4.211z"></path>
</symbol>
<symbol id="icon-email" viewBox="0 0 32 32">
<path d="M31.393 11.924c0.063-0.049 0.143-0.079 0.23-0.079 0.207 0 0.375 0.167 0.376 0.373v12.781c0 1.657-1.343 3-3 3v0h-25.999c-1.657 0-3-1.343-3-3v0-12.774c0-0.312 0.356-0.488 0.607-0.294 1.399 1.088 3.256 2.469 9.631 7.1 1.318 0.963 3.544 2.988 5.763 2.975 2.231 0.019 4.5-2.049 5.769-2.975 6.374-4.631 8.225-6.019 9.626-7.107zM16 20c1.45 0.026 3.538-1.825 4.588-2.587 8.294-6.020 8.925-6.545 10.838-8.045 0.362-0.282 0.575-0.718 0.575-1.181v-1.185c0-1.657-1.343-3-3-3v0h-25.999c-1.657 0-3 1.343-3 2.999v1.187c0 0.463 0.212 0.895 0.576 1.181 1.911 1.494 2.543 2.025 10.836 8.045 1.050 0.762 3.137 2.611 4.588 2.587z"></path>
</symbol>
<symbol id="icon-characteristics-6" viewBox="0 0 32 32">
<path d="M18.979 15.296v-15.296h-9.729v15.296c-2.541 1.633-4.2 4.445-4.2 7.645 0 5.003 4.055 9.058 9.058 9.058s9.058-4.055 9.058-9.058c0-0.001 0-0.002 0-0.003v0c0-0.009 0-0.019 0-0.030 0-3.187-1.654-5.988-4.151-7.59l-0.036-0.022zM14.108 29.077c-2.885-0.003-5.304-1.998-5.955-4.684l-0.009-0.042c-0.104-0.423-0.164-0.909-0.164-1.409 0-2.386 1.362-4.454 3.351-5.468l0.035-0.016 0.824-0.412v-14.118h3.879v14.123l0.824 0.412c2.026 1.029 3.39 3.097 3.39 5.484 0 3.386-2.745 6.131-6.131 6.131-0.015 0-0.030-0-0.045-0h0.002z"></path>
<path d="M14.783 19.763v-12.217h-1.462v12.216c-1.557 0.348-2.703 1.718-2.703 3.355 0 1.896 1.537 3.434 3.434 3.434s3.434-1.537 3.434-3.434c0-1.637-1.146-3.007-2.68-3.351l-0.023-0.004zM27.168 10.606h-6.407v1.721h6.407v-1.721zM27.168 6.654h-6.407v1.721h6.407v-1.721zM27.168 2.705h-6.407v1.721h6.407v-1.721z"></path>
</symbol>
<symbol id="icon-characteristics-5" viewBox="0 0 32 32">
<path d="M16.707 8.549c-0.156-0.012-0.337-0.018-0.52-0.018-4.049 0-7.331 3.282-7.331 7.331s3.282 7.331 7.331 7.331c4.043 0 7.322-3.274 7.331-7.315v-0.001c0-0.021 0-0.045 0-0.069 0-3.854-2.998-7.007-6.789-7.256l-0.022-0.001zM16.068 20.048c-2.235-0.090-4.013-1.924-4.013-4.173 0-2.306 1.87-4.176 4.176-4.176s4.176 1.87 4.176 4.176c0 0.032-0 0.064-0.001 0.096l0-0.005c-0.031 2.263-1.872 4.086-4.14 4.086-0.069 0-0.139-0.002-0.207-0.005l0.010 0zM32.086 14.693h-3.687c0.864-0.812 1.668-1.577 1.81-1.688l-1.092-1.234c-0.335 0.296-3.699 3.466-3.845 3.6l-0.678 0.631 4.535 3.837 1.065-1.258-1.723-1.459h3.616v-2.429zM16.395 7.634l3.833-4.523-1.254-1.065-1.522 1.794v-3.841h-2.366v3.841c-0.84-0.875-1.534-1.636-1.664-1.778l-1.286 1.029c0.3 0.375 3.076 3.296 3.628 3.876l0.631 0.666zM16.238 24.212l-3.837 4.527 1.254 1.065 1.475-1.715v3.912h2.421v-4.003l1.703 1.822 1.234-1.088c-0.296-0.335-3.466-3.699-3.6-3.845l-0.651-0.674zM2.436 13.265l1.869 1.577h-4.16v2.405h3.99c-0.469 0.446-1.017 0.961-1.569 1.472l-0.115 0.105 1.029 1.286c0.394-0.3 3.296-3.076 3.876-3.628l0.674-0.639-4.531-3.837-1.065 1.258z"></path>
</symbol>
<symbol id="icon-characteristics-4" viewBox="0 0 32 32">
<path d="M31.049 4.572c-2.019-4.148-3.936-4.653-5.733-4.542s-2.695 1.468-3.381 2.483c-0.25 0.382-0.514 0.715-0.805 1.022l0.003-0.003c-0.323-0.3-0.611-0.63-0.86-0.989l-0.013-0.020c-0.807-1.060-1.913-2.523-3.866-2.523h-0.076c-1.973 0-3.164 1.418-4.037 2.458-0.303 0.358-0.954 1.125-1.12 1.105-0.343-0.299-0.637-0.641-0.877-1.021l-0.011-0.019c-0.717-1.009-1.696-2.392-3.482-2.523-3.028-0.187-5.046 3.3-5.703 4.441l-0.242 0.434 0.217 27.125h30.163v-27.059l-0.177-0.368zM27.643 28.412h-23.022l-0.182-22.573c1.216-1.978 1.958-2.215 2.094-2.246 0.309 0.304 0.582 0.642 0.813 1.009 0.732 1.035 1.736 2.448 3.588 2.554 2.019 0.116 3.21-1.322 4.093-2.372 0.439-0.505 1.010-1.176 1.297-1.176 0.217 0 0.802 0.767 1.080 1.131 0.813 1.065 1.923 2.523 3.891 2.417 1.877-0.101 2.912-1.62 3.598-2.629 0.222-0.347 0.453-0.649 0.707-0.93l-0.005 0.006c0.389 0 1.009 0.141 2.044 2.18l0.005 22.629z"></path>
<path d="M14.239 16.341c-0.642-0.535-1.637-0.802-2.982-0.802h-0.777l0.151-1.817h3.982v-1.771h-5.824l-0.505 5.375h2.442c0.071-0.005 0.153-0.008 0.236-0.008 0.543 0 1.055 0.128 1.51 0.355l-0.020-0.009c0.304 0.178 0.506 0.503 0.506 0.875 0 0.017-0 0.034-0.001 0.051l0-0.002c0.001 0.012 0.001 0.026 0.001 0.041 0 0.364-0.187 0.685-0.471 0.87l-0.004 0.002c-0.337 0.208-0.746 0.332-1.183 0.332-0.045 0-0.090-0.001-0.135-0.004l0.006 0c-0.521-0-1.022-0.081-1.493-0.232l0.035 0.010c-0.478-0.152-0.894-0.369-1.263-0.644l0.011 0.008-0.873 1.691c0.473 0.334 1.025 0.595 1.62 0.749l0.035 0.008c0.594 0.169 1.277 0.266 1.983 0.267h0.001c0.044 0.001 0.096 0.002 0.148 0.002 0.743 0 1.448-0.159 2.085-0.444l-0.032 0.013c0.554-0.253 1.007-0.645 1.325-1.134l0.007-0.012c0.273-0.446 0.434-0.985 0.434-1.562 0-0.010-0-0.019-0-0.029v0.001c0.002-0.040 0.003-0.087 0.003-0.135 0-0.82-0.37-1.553-0.953-2.042l-0.004-0.003zM22.298 12.374c-0.603-0.368-1.332-0.585-2.112-0.585s-1.509 0.218-2.13 0.596l0.018-0.010c-0.633 0.417-1.131 0.993-1.443 1.671l-0.010 0.025c-0.321 0.724-0.508 1.568-0.508 2.456 0 0.070 0.001 0.139 0.003 0.208l-0-0.010c-0.002 0.058-0.003 0.127-0.003 0.195 0 0.887 0.187 1.731 0.523 2.494l-0.016-0.040c0.321 0.704 0.819 1.28 1.438 1.687l0.015 0.009c0.602 0.371 1.331 0.59 2.112 0.59s1.51-0.22 2.13-0.601l-0.018 0.010c0.637-0.413 1.135-0.99 1.443-1.671l0.010-0.024c0.321-0.723 0.508-1.567 0.508-2.454 0-0.069-0.001-0.137-0.003-0.205l0 0.010c0.029-0.911-0.143-1.817-0.505-2.654-0.319-0.705-0.818-1.282-1.438-1.687l-0.015-0.009zM21.536 19.040c-0.29 0.455-0.791 0.752-1.363 0.752s-1.073-0.297-1.359-0.746l-0.004-0.006c-0.324-0.585-0.515-1.283-0.515-2.025 0-0.102 0.004-0.204 0.011-0.304l-0.001 0.014c-0.006-0.087-0.010-0.189-0.010-0.291 0-0.742 0.191-1.44 0.526-2.047l-0.011 0.022c0.29-0.455 0.791-0.753 1.363-0.753s1.073 0.297 1.359 0.746l0.004 0.007c0.324 0.585 0.515 1.283 0.515 2.025 0 0.102-0.004 0.204-0.011 0.304l0.001-0.014c0.006 0.087 0.010 0.189 0.010 0.291 0 0.742-0.191 1.44-0.526 2.047l0.011-0.022z"></path>
</symbol>
<symbol id="icon-characteristics-3" viewBox="0 0 32 32">
<path d="M17.75 28.855v-3.233c6.36-0.886 11.203-6.289 11.203-12.824 0-0.57-0.037-1.132-0.108-1.683l0.007 0.065c-0.846-6.339-6.22-11.178-12.723-11.178-2.975 0-5.713 1.013-7.889 2.712l0.028-0.021c-2.339 1.826-4.016 4.405-4.669 7.368l-0.016 0.085c-0.193 0.818-0.304 1.757-0.304 2.722 0 2.18 0.565 4.228 1.556 6.006l-0.032-0.063c2.101 3.843 5.39 6.056 9.667 6.759v3.312h-14.325v3.117h31.944v-3.145h-14.339zM6.476 12.788c0-5.334 4.324-9.657 9.657-9.657s9.657 4.324 9.657 9.657-4.324 9.657-9.657 9.657c-0.018 0-0.036-0-0.054-0h0.003c-5.307-0.040-9.596-4.346-9.606-9.656v-0.001z"></path>
<path d="M13.976 12.746l2.152 2.199 5.814-5.879-2.064-2.008-5.902 5.688z"></path>
</symbol>
<symbol id="icon-characteristics-2" viewBox="0 0 32 32">
<path d="M31.271 25.121h-30.426v6.879h30.426v-6.879zM31.271 14.641h-30.426v4.131h30.426v-4.131zM31.271 6.071h-30.426v2.754h30.426v-2.754zM31.271 0h-30.426v1.377h30.426v-1.377z"></path>
</symbol>
<symbol id="icon-characteristics-1" viewBox="0 0 32 32">
<path d="M3.648 0v32h24.914v-32h-24.914zM25.604 29.042h-18.998v-26.084h18.998v26.084z"></path>
<path d="M16.106 24.835c3.599 0 6.532-3.166 6.532-7.073 0-5.043-5.634-10.202-5.871-10.402l-0.662-0.599-0.662 0.599c-0.241 0.221-5.871 5.38-5.871 10.402 0 3.907 2.929 7.073 6.532 7.073zM16.106 9.466c1.406 1.448 4.577 5.055 4.577 8.321-0.017 2.792-2.055 5.097-4.577 5.097s-4.552-2.305-4.552-5.109c0-3.254 3.145-6.861 4.552-8.309z"></path>
</symbol>
<symbol id="icon-characteristics-6-2" viewBox="0 0 32 32">
<path d="M18.979 15.296v-15.296h-9.729v15.296c-1.328 0.844-2.414 2.020-3.149 3.411s-1.096 2.95-1.046 4.523c0.050 1.573 0.51 3.106 1.333 4.447s1.981 2.445 3.361 3.203c1.38 0.758 2.933 1.143 4.506 1.117s3.114-0.46 4.468-1.262c1.354-0.802 2.476-1.942 3.256-3.31s1.189-2.914 1.188-4.488c0.005-1.524-0.376-3.024-1.109-4.361s-1.791-2.465-3.079-3.281zM14.108 29.077c-1.381-0.002-2.721-0.469-3.803-1.327s-1.844-2.055-2.161-3.399c-0.317-1.344-0.172-2.756 0.413-4.007s1.574-2.268 2.809-2.887l0.823-0.412v-14.118h3.879v14.123l0.823 0.412c1.239 0.619 2.232 1.639 2.817 2.895s0.728 2.672 0.405 4.019c-0.323 1.347-1.092 2.545-2.183 3.399s-2.438 1.313-3.823 1.303z"></path>
<path d="M14.783 19.763v-12.216h-1.462v12.216c-0.828 0.18-1.559 0.66-2.055 1.347s-0.719 1.533-0.629 2.375c0.091 0.842 0.489 1.621 1.12 2.187s1.447 0.879 2.295 0.879 1.664-0.313 2.294-0.879c0.63-0.566 1.029-1.345 1.12-2.187s-0.133-1.688-0.628-2.375-1.227-1.167-2.055-1.347z"></path>
<path d="M27.168 10.606h-6.407v1.721h6.407v-1.721z"></path>
<path d="M27.168 6.654h-6.407v1.721h6.407v-1.721z"></path>
<path d="M27.168 2.705h-6.407v1.721h6.407v-1.721z"></path>
</symbol>
<symbol id="icon-characteristics-5-2" viewBox="0 0 32 32">
<path d="M16.707 8.549c-1.468-0.104-2.933 0.235-4.205 0.975s-2.292 1.845-2.928 3.172c-0.635 1.327-0.857 2.815-0.635 4.27s0.876 2.809 1.878 3.887c1.002 1.078 2.305 1.829 3.739 2.156s2.934 0.215 4.304-0.322c1.37-0.537 2.547-1.473 3.377-2.688s1.276-2.651 1.279-4.123c0.018-1.861-0.678-3.657-1.945-5.020s-3.008-2.188-4.865-2.306zM16.068 20.048c-0.822-0.032-1.617-0.306-2.284-0.788s-1.177-1.15-1.465-1.921c-0.288-0.771-0.343-1.609-0.156-2.411s0.606-1.53 1.205-2.094c0.599-0.564 1.352-0.938 2.163-1.076s1.645-0.033 2.397 0.302c0.752 0.335 1.388 0.884 1.828 1.579s0.666 1.505 0.648 2.327c-0.007 0.556-0.126 1.104-0.35 1.613s-0.548 0.967-0.953 1.348c-0.405 0.381-0.882 0.676-1.404 0.869s-1.076 0.278-1.631 0.251z"></path>
<path d="M32.086 14.693h-3.687c0.864-0.812 1.668-1.577 1.81-1.688l-1.092-1.234c-0.335 0.296-3.699 3.466-3.845 3.6l-0.678 0.631 4.535 3.837 1.065-1.258-1.723-1.459h3.616v-2.429z"></path>
<path d="M16.395 7.634l3.833-4.523-1.254-1.065-1.522 1.794v-3.841h-2.366v3.841c-0.84-0.875-1.534-1.636-1.664-1.778l-1.286 1.029c0.3 0.375 3.076 3.297 3.628 3.876l0.631 0.666z"></path>
<path d="M16.238 24.212l-3.837 4.527 1.254 1.065 1.475-1.715v3.912h2.421v-4.003l1.704 1.822 1.234-1.088c-0.296-0.335-3.466-3.699-3.6-3.845l-0.651-0.674z"></path>
<path d="M2.436 13.265l1.869 1.577h-4.16v2.405h3.991c-0.832 0.789-1.546 1.451-1.684 1.577l1.029 1.285c0.394-0.3 3.297-3.076 3.876-3.628l0.674-0.639-4.531-3.837-1.065 1.258z"></path>
</symbol>
<symbol id="icon-characteristics-4-2" viewBox="0 0 32 32">
<path d="M31.049 4.572c-2.019-4.148-3.936-4.653-5.733-4.542s-2.695 1.469-3.381 2.483c-0.236 0.364-0.504 0.705-0.802 1.019-0.328-0.303-0.62-0.641-0.873-1.009-0.807-1.060-1.913-2.523-3.866-2.523h-0.076c-1.973 0-3.164 1.418-4.037 2.458-0.303 0.358-0.954 1.125-1.12 1.105-0.346-0.3-0.646-0.651-0.888-1.040-0.717-1.009-1.696-2.392-3.482-2.523-3.028-0.187-5.047 3.3-5.703 4.441l-0.242 0.434 0.217 27.125h30.163v-27.059l-0.177-0.368zM27.643 28.412h-23.022l-0.182-22.573c1.216-1.978 1.958-2.215 2.094-2.246 0.309 0.304 0.582 0.642 0.813 1.009 0.732 1.035 1.736 2.448 3.588 2.554 2.019 0.116 3.21-1.322 4.093-2.372 0.439-0.505 1.009-1.176 1.297-1.176 0.217 0 0.802 0.767 1.080 1.13 0.813 1.065 1.923 2.523 3.891 2.417 1.877-0.101 2.912-1.62 3.598-2.629 0.208-0.327 0.442-0.636 0.701-0.923 0.389 0 1.009 0.141 2.044 2.18l0.005 22.629z"></path>
<path d="M14.239 16.341c-0.643-0.535-1.637-0.802-2.982-0.802h-0.777l0.151-1.817h3.982v-1.771h-5.824l-0.505 5.375h2.443c0.595-0.041 1.191 0.075 1.726 0.338 0.161 0.093 0.293 0.228 0.382 0.391s0.131 0.347 0.122 0.533c0.007 0.18-0.033 0.359-0.116 0.52s-0.207 0.296-0.358 0.394c-0.394 0.24-0.852 0.354-1.312 0.328-0.495-0-0.986-0.075-1.458-0.222-0.45-0.141-0.873-0.356-1.252-0.636l-0.873 1.691c0.501 0.351 1.062 0.607 1.655 0.757 0.646 0.177 1.313 0.267 1.983 0.267 0.756 0.022 1.508-0.125 2.2-0.429 0.546-0.245 1.008-0.643 1.332-1.146 0.289-0.48 0.439-1.030 0.434-1.59 0.021-0.412-0.054-0.824-0.22-1.202s-0.417-0.713-0.734-0.978z"></path>
<path d="M22.298 12.374c-0.638-0.383-1.368-0.585-2.112-0.585s-1.474 0.202-2.112 0.585c-0.636 0.415-1.141 1.003-1.453 1.696-0.361 0.837-0.534 1.743-0.505 2.654-0.029 0.91 0.144 1.814 0.505 2.649 0.311 0.693 0.816 1.282 1.453 1.696 0.637 0.386 1.367 0.59 2.112 0.59s1.475-0.204 2.112-0.59c0.64-0.411 1.145-1 1.453-1.696 0.361-0.835 0.534-1.74 0.505-2.649 0.029-0.911-0.143-1.818-0.505-2.654-0.309-0.694-0.814-1.284-1.453-1.696zM21.536 19.041c-0.145 0.23-0.346 0.42-0.584 0.552s-0.506 0.201-0.778 0.201c-0.272 0-0.54-0.069-0.778-0.201s-0.439-0.322-0.584-0.552c-0.385-0.709-0.56-1.512-0.505-2.316-0.055-0.804 0.12-1.608 0.505-2.316 0.145-0.23 0.346-0.42 0.584-0.552s0.506-0.201 0.778-0.201c0.272 0 0.54 0.069 0.778 0.201s0.439 0.321 0.584 0.552c0.385 0.709 0.56 1.512 0.505 2.316 0.055 0.804-0.12 1.608-0.505 2.316z"></path>
</symbol>
<symbol id="icon-characteristics-3-2" viewBox="0 0 32 32">
<path d="M17.75 28.855v-3.233c3.38-0.458 6.443-2.233 8.522-4.937s3.006-6.12 2.58-9.505c-0.39-3.001-1.828-5.768-4.060-7.811s-5.115-3.232-8.138-3.356-5.994 0.825-8.385 2.679c-2.392 1.854-4.051 4.494-4.685 7.453-0.664 2.941-0.23 6.022 1.221 8.665 2.101 3.843 5.39 6.056 9.667 6.76v3.312h-14.325v3.117h31.944v-3.145h-14.339zM6.476 12.788c0-1.912 0.568-3.781 1.631-5.371s2.575-2.827 4.342-3.556c1.768-0.729 3.712-0.918 5.587-0.541s3.595 1.302 4.944 2.657c1.348 1.356 2.264 3.081 2.631 4.958s0.168 3.82-0.57 5.584-1.985 3.268-3.58 4.323c-1.595 1.055-3.467 1.613-5.379 1.603-2.551-0.018-4.991-1.043-6.79-2.852s-2.811-4.254-2.816-6.805z"></path>
<path d="M13.976 12.746l2.152 2.199 5.814-5.879-2.064-2.008-5.902 5.688z"></path>
</symbol>
<symbol id="icon-characteristics-2-2" viewBox="0 0 32 32">
<path d="M31.271 25.121h-30.426v6.879h30.426v-6.879z"></path>
<path d="M31.271 14.64h-30.426v4.131h30.426v-4.131z"></path>
<path d="M31.271 6.071h-30.426v2.754h30.426v-2.754z"></path>
<path d="M31.271 0h-30.426v1.377h30.426v-1.377z"></path>
</symbol>
<symbol id="icon-characteristics-1-2" viewBox="0 0 32 32">
<path d="M3.648 0v32h24.914v-32h-24.914zM25.604 29.042h-18.998v-26.083h18.998v26.083z"></path>
<path d="M16.106 24.835c3.599 0 6.532-3.166 6.532-7.073 0-5.043-5.634-10.202-5.871-10.402l-0.662-0.599-0.662 0.599c-0.241 0.221-5.871 5.38-5.871 10.402 0 3.907 2.929 7.073 6.532 7.073zM16.106 9.466c1.406 1.448 4.577 5.055 4.577 8.321-0.017 2.792-2.055 5.097-4.577 5.097s-4.552-2.305-4.552-5.109c0-3.254 3.146-6.861 4.552-8.309z"></path>
</symbol>
<symbol id="icon-favicon" viewBox="0 0 49 32">
<path d="M0 0h48.941v32h-48.941v-32z"></path>
</symbol>
<symbol id="icon-phone" viewBox="0 0 30 32">
<path d="M9.815 2.226c-0.458-1.107-1.667-1.696-2.821-1.381l-5.238 1.429c-1.036 0.286-1.756 1.226-1.756 2.298 0 14.726 11.94 26.667 26.667 26.667 1.071 0 2.012-0.72 2.298-1.756l1.429-5.238c0.315-1.155-0.274-2.363-1.381-2.822l-5.714-2.381c-0.97-0.405-2.095-0.125-2.756 0.69l-2.405 2.935c-4.19-1.982-7.583-5.375-9.565-9.565l2.935-2.399c0.815-0.667 1.095-1.786 0.69-2.756l-2.381-5.714v-0.006z"></path>
</symbol>
</defs>
</svg>
