<svg aria-hidden="true" style="position: absolute; width: 0; height: 0; overflow: hidden;" version="1.1" xmlns="http://www.w3.org/2000/svg" xmlns:xlink="http://www.w3.org/1999/xlink">
<defs>
<symbol id="icon-facebook" viewBox="0 0 32 32">
<path d="M27 2.001h-22.001c-1.657 0-3 1.343-3 2.999v22.001c0 1.656 1.343 2.999 2.999 2.999 0 0 0.001 0 0.001 0h8.579v-9.519h-3.937v-4.48h3.937v-3.415c0-3.885 2.313-6.029 5.855-6.029 1.696 0 3.469 0.301 3.469 0.301v3.813h-1.953c-1.926 0-2.527 1.196-2.527 2.42v2.909h4.298l-0.687 4.48h-3.61v9.521h8.576c0.001 0 0.002 0 0.003 0 1.656 0 2.999-1.343 2.999-2.999 0-0 0-0.001 0-0.001v0-22.001c0-1.657-1.343-3-3-3v0z"></path>
</symbol>
<symbol id="icon-instagram" viewBox="0 0 32 32">
<path d="M16 12.668c1.835 0.012 3.32 1.497 3.332 3.331v0.001c0 1.885-1.509 3.395-3.332 3.395-0.005 0-0.010 0-0.015 0-1.866 0-3.379-1.513-3.379-3.379 0-0.005 0-0.011 0-0.016v0.001c0-1.823 1.509-3.332 3.395-3.332zM23.795 10.092c0.564 1.32 0.439 4.462 0.439 5.908 0 1.509 0.125 4.652-0.44 5.971-0.321 0.882-1.004 1.564-1.864 1.879l-0.022 0.007c-1.32 0.566-4.462 0.44-5.908 0.44-1.509 0-4.652 0.125-5.971-0.44-0.882-0.321-1.564-1.004-1.879-1.864l-0.007-0.022c-0.503-1.32-0.44-4.462-0.44-5.971 0-1.446-0.064-4.589 0.44-5.908 0.321-0.882 1.004-1.565 1.864-1.88l0.022-0.007c1.32-0.566 4.462-0.44 5.971-0.44 1.446 0 4.589-0.125 5.908 0.44 0.882 0.321 1.564 1.004 1.879 1.864l0.007 0.022zM16 21.155v0.063c2.842-0.013 5.142-2.313 5.155-5.153v-0.064c0-2.829-2.326-5.155-5.155-5.155-0.005-0-0.012-0-0.018-0-2.837 0-5.137 2.3-5.137 5.137 0 0.006 0 0.013 0 0.019v-0.001c0 2.892 2.263 5.155 5.155 5.155zM21.343 11.852c0.66 0 1.194-0.535 1.194-1.194s-0.535-1.194-1.194-1.194v0c-0.012-0-0.025-0.001-0.039-0.001-0.638 0-1.156 0.518-1.156 1.156 0 0.014 0 0.027 0.001 0.041l-0-0.002c0 0.691 0.503 1.194 1.194 1.194zM27.063 1.92c1.635 0 3.017 1.382 3.017 3.017v22.126c-0.001 1.666-1.351 3.016-3.017 3.017h-22.126c-0.011 0-0.025 0-0.039 0-1.645 0-2.979-1.334-2.979-2.979 0-0.014 0-0.027 0-0.041l-0 0.002v-22.126c0.001-1.666 1.351-3.016 3.017-3.017h22.126zM25.932 20.148c0.125-1.635 0.125-6.6 0-8.234-0.064-1.635-0.44-3.080-1.572-4.211-1.194-1.194-2.639-1.572-4.211-1.635-1.697-0.125-6.662-0.125-8.297 0-1.635 0.064-3.080 0.44-4.211 1.572-1.194 1.194-1.572 2.639-1.635 4.211-0.125 1.697-0.125 6.662 0 8.297 0.064 1.635 0.44 3.080 1.635 4.211 1.132 1.194 2.577 1.572 4.211 1.635 1.635 0.125 6.6 0.125 8.297 0 1.572-0.064 3.017-0.44 4.211-1.635 1.132-1.132 1.509-2.577 1.572-4.211z"></path>
</symbol>
<symbol id="icon-email" viewBox="0 0 32 32">
<path d="M31.393 11.924c0.063-0.049 0.143-0.079 0.23-0.079 0.207 0 0.375 0.167 0.376 0.373v12.781c0 1.657-1.343 3-3 3v0h-25.999c-1.657 0-3-1.343-3-3v0-12.774c0-0.312 0.356-0.488 0.607-0.294 1.399 1.088 3.256 2.469 9.631 7.1 1.318 0.963 3.544 2.988 5.763 2.975 2.231 0.019 4.5-2.049 5.769-2.975 6.374-4.631 8.225-6.019 9.626-7.107zM16 20c1.45 0.026 3.538-1.825 4.588-2.587 8.294-6.020 8.925-6.545 10.838-8.045 0.362-0.282 0.575-0.718 0.575-1.181v-1.185c0-1.657-1.343-3-3-3v0h-25.999c-1.657 0-3 1.343-3 2.999v1.187c0 0.463 0.212 0.895 0.576 1.181 1.911 1.494 2.543 2.025 10.836 8.045 1.050 0.762 3.137 2.611 4.588 2.587z"></path>
</symbol>
<symbol id="icon-favicon" viewBox="0 0 49 32">
<path d="M0 0h48.941v32h-48.941v-32z"></path>
</symbol>
<symbol id="icon-phone" viewBox="0 0 30 32">
<path d="M9.815 2.226c-0.458-1.107-1.667-1.696-2.821-1.381l-5.238 1.429c-1.036 0.286-1.756 1.226-1.756 2.298 0 14.726 11.94 26.667 26.667 26.667 1.071 0 2.012-0.72 2.298-1.756l1.429-5.238c0.315-1.155-0.274-2.363-1.381-2.822l-5.714-2.381c-0.97-0.405-2.095-0.125-2.756 0.69l-2.405 2.935c-4.19-1.982-7.583-5.375-9.565-9.565l2.935-2.399c0.815-0.667 1.095-1.786 0.69-2.756l-2.381-5.714v-0.006z"></path>
</symbol>
<symbol id="icon-burger-menu" viewBox="0 0 32 32">
<path d="M4 24v-2.667h24v2.667h-24zM4 17.333v-2.667h24v2.667h-24zM4 10.667v-2.667h24v2.667h-24z"></path>
</symbol>
<symbol id="icon-close-cross" viewBox="0 0 32 32">
<path d="M32 3.223l-3.223-3.223-12.777 12.777-12.777-12.777-3.223 3.223 12.777 12.777-12.777 12.777 3.223 3.223 12.777-12.777 12.777 12.777 3.223-3.223-12.777-12.777 12.777-12.777z"></path>
</symbol>
</defs>
</svg>
